<?xml version="1.0" encoding="UTF-8"?>
<svg width="244px" height="245px" viewBox="0 0 244 245" version="1.1" xmlns="http://www.w3.org/2000/svg" xmlns:xlink="http://www.w3.org/1999/xlink">
    <!-- Generator: Sketch 44.1 (41455) - http://www.bohemiancoding.com/sketch -->
    <title>Page 1</title>
    <desc>Created with Sketch.</desc>
    <defs>
        <polygon id="path-1" points="0.000219829139 245 243.153572 245 243.153572 0.577 0.000219829139 0.577"></polygon>
    </defs>
    <g id="Page-1" stroke="none" stroke-width="1" fill="none" fill-rule="evenodd">
        <g transform="translate(0.000000, -1.000000)" id="Group">
            <g>
                <g id="Group-3" transform="translate(0.000000, 0.423000)">
                    <mask id="mask-2" fill="white">
                        <use xlink:href="#path-1"></use>
                    </mask>
                    <g id="Clip-2"></g>
                    <path d="M218.8845,83.8181 C216.3465,83.2551 214.3675,81.8421 212.4905,79.0691 L211.1205,77.0371 L213.5055,74.0961 C217.2615,69.4631 218.5255,65.9011 218.5255,60.1321 C218.4795,57.4761 218.2715,54.3081 218.0715,53.1211 L217.6125,50.9201 L219.5925,51.3141 C220.6575,51.5391 223.1925,52.5581 225.2215,53.6861 C231.1565,56.8511 235.0155,62.7321 235.0155,68.6121 C235.0155,73.9841 231.4615,79.9181 226.7445,82.3491 C223.4995,84.1021 221.7225,84.3861 218.8845,83.8181 L218.8845,83.8181 Z M212.1385,92.3541 C210.8705,92.3541 209.7025,92.5261 209.5015,92.6951 C209.3475,92.9231 209.6515,93.7701 210.2585,94.6741 C211.1735,96.0321 211.3275,97.2731 211.5265,104.3411 C211.8345,114.0091 211.1205,117.1181 207.4185,123.3951 C204.7835,127.8041 197.4755,136.2261 193.2695,139.7881 C190.3255,142.2751 189.8705,142.4441 188.9545,141.4281 C187.6845,140.0121 188.4995,138.3751 193.5705,132.5511 C202.0925,122.6011 204.8305,115.9871 204.7835,105.3591 C204.7835,101.2311 204.4785,98.4071 203.8185,96.0321 C203.3115,94.1671 202.8035,92.2421 202.7535,91.7921 C202.5485,90.7171 201.0795,89.5301 199.8095,89.5301 C198.0355,89.5301 194.4845,87.2111 192.6575,84.8371 C189.6675,80.9931 188.7525,77.2621 188.9545,70.3061 C189.1605,63.9751 189.7655,61.8851 192.3045,58.8891 C193.5705,57.3041 194.9425,56.7951 194.9425,57.8701 C194.9425,58.1511 194.5865,59.8511 194.1795,61.6571 C193.7755,63.4101 193.4205,65.5571 193.4205,66.3501 C193.4735,67.6501 193.5225,67.7071 194.1305,66.7441 C194.4845,66.2381 194.9425,64.5411 195.1455,63.0171 C195.6525,58.6631 200.5695,51.1991 203.9235,49.6141 C206.4035,48.4281 210.1085,48.6531 212.4395,50.1271 C218.1205,53.6321 218.5775,65.0501 213.2025,70.5321 C212.3885,71.3811 210.7655,73.0781 209.5965,74.3221 C208.4335,75.5071 207.0645,76.5241 206.5585,76.5241 C205.9965,76.5241 205.5925,76.8121 205.5925,77.0931 C205.5925,77.4311 206.6085,77.6591 207.8755,77.6591 C209.9545,77.6591 210.1585,77.7711 210.1585,79.0121 C210.1585,81.3311 213.6085,85.5171 215.6335,85.5741 C216.5975,85.5741 216.7515,85.8551 216.7515,87.7211 C216.7515,90.7731 215.1315,92.3541 212.1385,92.3541 L212.1385,92.3541 Z M149.8465,217.6931 C143.3545,220.6311 137.9765,221.7611 128.6465,222.2151 C122.4045,222.4991 120.3755,222.7241 120.3755,223.2871 C120.3755,224.3641 119.5645,224.7611 115.8625,225.3241 C106.8815,226.6801 106.9325,226.6241 112.5115,227.1351 C115.8625,227.4731 118.8535,227.4171 121.3905,226.9611 C126.7165,226.0611 139.3995,226.1141 140.0065,227.0771 C140.8705,228.2611 142.2885,233.6911 141.9855,234.5391 C141.7845,235.2161 140.7125,235.3851 137.6235,235.3851 C133.5145,235.3851 131.2325,236.0661 131.7905,237.1411 C131.9945,237.4231 135.2405,237.6471 139.1435,237.6471 L146.2485,237.6471 L145.9415,235.9541 C145.7425,234.9351 145.8905,233.9171 146.2485,233.4101 C146.7015,232.7851 146.6015,231.8821 145.7425,228.9421 C144.7225,225.4361 144.7225,224.0831 145.7425,224.0831 C146.5505,224.0831 151.8265,236.9161 151.8265,238.7781 C151.8265,239.0621 149.3925,239.4031 146.3985,239.6281 C138.4845,240.0781 91.6145,240.3041 67.6255,239.9101 L47.0815,239.6281 L47.2305,237.6471 C47.3335,236.5731 48.3985,233.6361 49.5145,231.1481 L51.6465,226.6241 L55.4475,226.6241 C57.5285,226.6801 63.1605,227.0231 67.8785,227.4171 C73.9655,227.9791 78.4255,228.0361 83.0955,227.6981 C86.7465,227.4171 88.6725,227.1351 87.4035,227.0231 C82.8395,226.6801 69.2475,224.5341 63.0575,223.1741 C55.4985,221.5371 46.7255,218.5431 41.4495,215.8841 C30.3385,210.2311 19.8415,199.4891 14.9725,188.6331 C11.5715,181.2271 9.9985,171.3341 10.8645,163.4231 C11.7235,155.4481 15.8845,143.3501 20.0945,136.4501 C22.1745,133.0631 32.4715,121.3021 34.3975,120.1711 C35.7695,119.2681 41.1445,119.2081 98.4155,119.3261 L160.8565,119.4361 L163.0885,120.6801 C164.2525,121.3581 167.4985,124.3541 170.2385,127.3511 C177.5425,135.2631 182.1575,143.4061 185.4075,154.1481 C186.7255,158.5011 186.9765,160.1981 186.9765,164.4361 C186.8745,185.8651 171.4035,208.0251 149.8465,217.6931 L149.8465,217.6931 Z M8.5305,126.1081 C5.9425,119.7771 4.9805,114.2341 5.0285,105.3591 C5.0785,96.2571 6.0455,90.8861 8.5305,85.2891 C13.4495,74.2121 27.8555,61.4891 39.8765,57.5891 C43.1225,56.5701 43.3255,56.0601 41.9565,52.4451 C40.6905,49.0521 41.1935,43.1161 43.1735,38.3661 C45.2545,33.5031 49.5645,28.6981 54.2845,26.1541 C57.5285,24.3451 58.0385,24.2291 63.0575,24.2291 C69.3485,24.2291 73.4565,25.5321 78.1735,29.0381 C82.6365,32.3721 83.5515,34.0721 83.7535,39.4971 L83.9575,44.0211 L81.7235,46.3961 C78.9365,49.3901 75.9925,51.0891 73.6595,51.0891 C70.6655,51.0891 66.7125,49.3901 64.3295,47.0151 C61.1835,43.9091 60.5225,44.1331 60.5225,48.2021 C60.5225,52.6141 60.0625,53.8011 56.9705,57.4201 C54.4835,60.3011 54.4325,60.4171 55.6495,60.5861 C56.4125,60.6981 57.7295,60.1321 59.0535,59.0011 C61.5375,57.0231 63.2085,56.9641 63.4625,58.8321 C63.6175,59.8511 62.9555,60.4171 59.4575,62.4511 C57.1745,63.8061 54.6915,65.4451 53.9285,66.1821 C51.8985,68.0471 51.0855,67.8191 49.0575,64.6541 C47.4835,62.2231 46.9785,61.8261 45.5565,61.8261 C41.9065,61.8261 29.6795,70.3061 23.4925,77.0931 C17.3055,83.8181 12.9425,92.0171 11.1185,100.3291 C10.1015,105.0211 10.0525,113.6711 11.0665,118.0801 C12.0775,122.4321 14.5155,128.2011 15.8335,129.5011 C17.2545,130.8011 17.1535,131.8721 15.6305,133.7941 C14.9195,134.6441 14.1085,135.3231 13.8565,135.3231 C13.1445,135.3231 10.3575,130.5171 8.5305,126.1081 L8.5305,126.1081 Z M84.1615,46.7331 C84.3135,46.9031 84.2635,48.2021 84.1075,49.5591 L83.7535,52.1611 L76.2985,54.9301 C72.2405,56.4571 68.4845,57.9271 68.0275,58.1511 C67.0145,58.6041 66.1015,56.6261 66.1015,54.0261 C66.1015,51.4261 66.7605,50.8581 68.6395,51.5951 C70.9715,52.4451 74.9275,52.3861 77.0585,51.3711 C78.0735,50.9201 80.0005,49.6141 81.4195,48.4841 C82.7885,47.3521 84.0055,46.5641 84.1615,46.7331 L84.1615,46.7331 Z M27.6035,109.8281 C29.5815,110.1091 29.9355,110.3901 30.7475,112.3131 C32.6235,116.8341 32.5205,117.4581 29.4305,119.7201 C27.8555,120.7931 24.9115,123.5081 22.8355,125.7111 C20.7555,127.8581 18.8265,129.6701 18.5245,129.6701 C17.6585,129.6701 14.5155,122.1491 13.8035,118.5331 C12.0305,108.8081 15.2755,94.1101 21.3615,84.1581 C23.8965,80.0871 29.2235,73.9251 33.0805,70.6501 C36.9865,67.3121 42.8715,63.5251 44.1375,63.5251 C45.0515,63.5251 49.3635,68.4441 49.3635,69.4631 C49.3635,69.6881 47.6905,71.8931 45.6125,74.3221 C40.7405,80.0871 36.1735,86.8171 33.5885,92.1291 C31.7595,95.8041 31.3045,96.3701 29.5815,96.8791 C27.0925,97.6101 25.0645,99.4791 24.2045,101.7411 C22.5275,106.1501 23.8485,109.2591 27.6035,109.8281 L27.6035,109.8281 Z M100.5945,54.7611 C108.0505,53.7451 126.5125,53.5761 128.8995,54.5331 C130.1675,55.0451 131.0295,54.9881 132.9075,54.2541 C136.2055,53.0081 137.6235,53.0671 137.6235,54.4801 C137.6235,56.1201 135.7955,57.8701 134.1225,57.8701 C133.3115,57.8701 127.9845,60.0761 122.3045,62.7321 C102.0655,72.2881 82.2335,81.3311 59.7605,91.2821 C31.8635,103.7221 33.4335,102.9281 32.1665,104.5691 C31.0515,105.9811 29.3775,106.3221 28.0595,105.3591 C27.4515,104.9621 27.4985,104.6251 28.5135,103.4351 C29.2235,102.6471 30.5435,101.6851 31.4575,101.2911 C32.7775,100.7231 33.8905,99.3661 36.3775,95.1821 C50.1215,72.2881 71.5795,58.7761 100.5945,54.7611 L100.5945,54.7611 Z M69.0445,109.7121 C114.5415,109.1471 157.6075,109.2031 159.1325,109.8841 C160.1925,110.3341 160.4505,110.7841 160.4505,112.3681 C160.4505,114.6301 159.4355,115.5341 156.8955,115.5341 C155.8835,115.5341 154.9175,115.0271 154.1595,114.1211 L152.9925,112.7091 L139.3475,112.7091 C131.4365,112.7091 125.3995,112.9331 124.9405,113.2751 C124.3795,113.6711 124.8395,113.8401 126.6135,113.8401 C127.9345,113.8401 129.0025,114.1211 129.0025,114.4021 C129.0025,114.7431 129.4565,114.9711 130.0145,114.9711 C130.5695,114.9711 131.0295,115.1961 131.0295,115.4771 C131.0295,115.7641 127.8845,116.1581 124.0775,116.3831 C115.3525,116.8961 55.9575,116.5521 55.6015,115.9871 C55.4985,115.7061 55.5515,115.3091 55.6995,114.9711 C55.9065,114.5771 52.9135,114.4021 47.1275,114.4021 L38.2035,114.4021 L38.2035,112.2561 L38.2035,110.0501 L69.0445,109.7121 Z M178.2025,30.7351 C177.3915,31.6381 176.5265,31.8661 174.0445,31.8661 C168.6135,31.8101 164.3015,29.3781 159.5335,23.7231 C156.1895,19.7111 154.8725,16.3741 154.8725,11.9641 C154.8725,8.2341 155.9865,6.0311 158.5715,4.6721 C165.8775,0.9971 175.2585,7.4431 178.2025,18.1861 C179.5705,23.1571 179.5705,29.2101 178.2025,30.7351 L178.2025,30.7351 Z M169.1215,38.7061 C166.3325,39.8371 159.9395,40.7401 159.3285,40.0061 C158.3205,38.8771 159.0795,38.1971 161.8675,37.9151 C163.4415,37.7471 166.5355,36.8401 168.7165,35.8791 C173.1305,33.9001 174.1455,33.7291 174.1455,34.9721 C174.1455,35.9911 172.4195,37.2931 169.1215,38.7061 L169.1215,38.7061 Z M155.2755,23.9511 C153.2955,25.4171 152.3335,26.7791 151.9765,28.5281 C151.3155,32.3721 149.7985,29.9981 149.7985,25.0231 C149.7985,22.1431 151.2685,17.8421 152.6895,16.4861 C153.2955,15.9241 153.5985,15.9801 154.1595,16.8831 C154.5635,17.4491 154.8725,18.3521 154.8725,18.8051 C154.8725,19.3141 155.2245,20.4451 155.6795,21.4041 C156.4415,23.0451 156.3915,23.1571 155.2755,23.9511 L155.2755,23.9511 Z M242.9495,104.6941 C242.6965,103.9591 242.9835,103.9791 236.1885,95.9491 C229.3915,87.9781 227.6075,85.8551 227.5065,85.5741 C227.4055,85.2891 228.2175,84.5551 229.2815,83.9331 C231.5625,82.6301 233.9985,79.8621 235.3175,77.0931 C236.0765,75.5071 237.0695,73.9021 237.0695,68.9271 C237.0695,63.1631 236.1785,62.4511 234.8095,59.6231 C232.8815,55.4391 228.3175,50.5211 224.6155,48.4841 C221.6225,46.9031 221.4165,46.8461 213.4555,46.8461 C204.8815,46.8461 203.3115,47.1831 200.1685,49.7891 C199.3015,50.4641 198.3415,51.0891 198.0895,51.0891 C197.7795,51.0891 193.8755,46.6771 189.4105,41.3621 L181.2475,31.5851 L181.2475,26.7791 C181.2475,13.0961 175.0085,2.8061 165.5245,0.8841 C160.2455,-0.1909 156.1895,1.5061 151.5735,6.7061 C143.1515,16.0921 142.4955,29.7161 150.0985,37.5181 C153.8555,41.3621 156.2895,42.3241 162.2225,42.3241 C167.0925,42.3241 167.4985,42.2091 172.5225,39.8371 L177.7465,37.3501 L180.8405,40.6841 C184.5455,44.6991 191.8975,53.9701 191.8975,54.5891 C191.8975,54.8731 191.3905,55.4951 190.8315,56.0601 C187.1825,59.3391 186.2175,60.5261 185.0485,63.1261 C181.6035,71.1001 182.5645,79.8621 187.6365,86.1371 C190.0215,89.0771 192.3545,90.6041 196.9685,92.3541 C201.5845,94.1101 202.1425,95.0701 202.4485,101.7971 C202.8035,109.4871 200.5205,117.9651 195.9075,125.5981 C194.0255,128.6511 187.8895,135.8881 187.0785,135.8881 C186.7755,135.8881 184.1345,133.1761 181.2475,129.8951 C174.7535,122.6581 171.9645,120.2831 167.8575,118.5891 C164.4055,117.1741 164.5545,117.6831 165.2675,110.6751 C165.5245,108.4121 165.4715,106.8281 165.0655,106.0371 L164.4545,104.7941 L102.3675,105.1901 C61.8395,105.4151 40.2305,105.3591 40.2305,104.9621 C40.2305,104.6791 41.4495,103.8901 42.9215,103.2101 C44.3395,102.5351 57.7815,96.4851 72.6945,89.7541 C87.6075,83.0301 105.8675,74.7181 113.2735,71.3251 C120.6815,67.8781 128.4395,64.3141 130.5245,63.4101 C140.1075,59.2261 141.1735,58.3791 141.1735,54.4801 C141.1735,49.7891 138.2845,48.0331 133.2625,49.7271 C129.9645,50.8021 122.7085,50.9741 113.5265,50.2391 C110.4335,49.9581 104.4495,50.0711 98.2585,50.5211 C87.6075,51.3141 85.7835,51.1461 86.8985,49.6711 C87.8115,48.4841 87.2025,42.5501 85.5805,36.9531 C84.5655,33.3911 83.8035,31.8661 81.7765,29.3781 C74.7725,20.8421 59.2525,17.9581 49.4135,23.2731 C45.2545,25.5911 40.0785,31.2441 38.1025,35.7101 C35.8675,40.7401 35.5135,46.7331 37.1885,52.1611 C37.7465,54.1381 38.1485,55.8351 38.1025,55.9511 C37.9975,56.0601 35.5135,57.0791 32.6235,58.1511 C29.7325,59.2821 25.9765,60.9791 24.3055,61.9411 C7.9205,71.1001 -1.5635,88.6801 0.2125,106.4351 C1.1255,115.4771 4.0165,124.5261 8.8355,133.4541 C10.2035,136.0001 11.3195,138.6001 11.3195,139.2811 C11.3195,139.9031 10.8115,141.5441 10.2545,142.8431 C8.5305,146.5751 6.8055,152.6801 5.9935,157.8801 C5.0285,163.8131 5.0285,175.1221 5.9425,179.9841 C9.4405,198.2441 23.3915,215.0931 41.6035,223.1181 C44.2905,224.2491 45.8085,225.2681 45.8085,225.7741 C45.8085,226.2271 45.1025,228.2611 44.2395,230.2981 C43.3785,232.3351 42.1075,236.1231 41.4495,238.7781 C40.2835,243.3031 40.2305,243.5841 41.0945,244.2631 C41.7525,244.8281 53.7265,245.0001 98.2585,245.0001 C150.9125,245.0001 154.7205,244.9441 156.3915,243.9811 C157.9595,243.1341 158.1675,242.7381 158.3205,240.5881 C158.4695,238.6101 157.9135,236.9161 155.4265,230.9801 C153.6985,227.0231 152.3335,223.5151 152.3335,223.1741 C152.3335,222.8361 154.4635,221.4241 157.0525,219.9551 C173.5875,210.5131 186.9765,193.4951 190.9335,176.8741 C192.1995,171.4471 192.3045,159.8011 191.1865,151.1491 C190.8315,148.2121 190.6275,145.4431 190.7795,145.0491 C190.8825,144.6501 192.4555,143.5741 194.2845,142.6741 C202.6025,138.4321 210.5615,130.3481 214.0125,122.6011 C215.8375,118.4181 215.9925,117.7961 216.1405,112.2031 C216.2965,107.5091 216.0955,105.0751 215.2865,101.2311 C214.6685,98.4601 214.2185,96.1451 214.2185,95.9731 C214.2185,95.8611 215.4345,95.7481 216.9065,95.7481 C218.6825,95.7481 220.0495,95.3541 221.0635,94.6171 C221.9245,93.9951 223.0935,93.4861 223.6515,93.4861 C224.4115,93.4861 224.3195,92.8991 231.9765,101.9421 C238.0635,109.0671 237.5215,108.2001 238.0795,108.6501 C238.6385,109.1031 239.8555,109.4431 240.7185,109.4431 C242.0885,109.4431 242.4425,109.1621 242.8995,107.7461 C243.2045,106.6721 243.2515,105.4871 242.9495,104.6941 L242.9495,104.6941 Z" id="Fill-1" fill="#FEFEFE" mask="url(#mask-2)"></path>
                </g>
                <path d="M60.6735,235.5837 C51.5955,235.5267 50.3785,235.6397 50.3785,236.4327 C50.3785,236.9397 50.5305,237.5087 50.7325,237.6767 C50.8835,237.9017 56.8665,238.0707 63.9705,238.0707 C71.1195,238.0707 76.8025,237.9017 76.6535,237.7327 C76.4975,237.5637 75.1295,237.0547 73.6595,236.5457 C71.5795,235.8647 68.4845,235.6397 60.6735,235.5837" id="Fill-4" fill="#FEFEFE"></path>
                <path d="M159.3839,204.2641 C158.5219,204.1511 157.3039,204.7731 155.5779,206.2981 C150.5599,210.7671 140.1069,216.5911 137.1649,216.5911 C136.6599,216.5911 135.9509,216.9851 135.5939,217.4381 C135.2409,217.8911 134.3769,218.2851 133.6169,218.3421 C132.9069,218.3421 131.8419,218.6251 131.2839,218.9061 C129.7619,219.6971 136.7629,218.9661 140.6659,217.8911 C147.8189,215.9671 159.4359,210.1981 160.4509,208.1081 C161.3639,206.1861 160.9049,204.4331 159.3839,204.2641" id="Fill-6" fill="#FEFEFE"></path>
                <path d="M168.5133,197.3676 C165.3713,197.3676 162.0213,201.3236 163.4953,203.3056 C164.4553,204.6046 165.2163,204.3196 167.8573,201.7206 C170.3913,199.1176 170.6973,197.3676 168.5133,197.3676" id="Fill-8" fill="#FEFEFE"></path>
                <path d="M168.3119,147.7292 C167.1449,148.0132 167.0439,147.8412 167.0439,145.8102 C167.0439,143.6042 166.9909,143.6042 165.5239,143.9422 C164.3009,144.2232 163.5899,143.9972 162.3299,142.9232 C161.4139,142.1322 160.2459,141.4572 159.6869,141.3422 C159.0799,141.1732 158.4699,140.3792 158.1679,139.2512 C157.6579,137.3862 156.5949,136.8732 155.4769,138.1202 C154.9719,138.6852 154.6189,138.6852 153.8549,138.1202 C153.2959,137.7802 152.4849,137.4422 152.0799,137.4422 C151.6739,137.4422 151.3149,137.2142 151.3149,136.8732 C151.3149,136.5932 150.9629,136.3102 150.5599,136.3102 C150.1529,136.3102 149.7989,136.4232 149.7989,136.5362 C149.7989,136.6482 149.6429,137.1602 149.4939,137.6672 C149.2359,138.4012 149.5449,138.5702 150.7609,138.5702 C152.6339,138.5702 153.5029,140.0982 152.1289,140.9452 C151.4729,141.3982 151.3669,141.6802 151.8739,142.3042 C152.5379,143.2072 153.8549,143.3762 153.8549,142.5292 C153.8549,141.5112 155.6799,141.9662 156.7479,143.2662 C158.5219,145.3542 161.5669,151.5722 161.2579,152.4782 C161.1089,152.9342 160.5519,153.2722 160.0439,153.2722 C159.2809,153.2722 159.1329,153.5532 159.3289,154.6842 C159.6369,156.4942 158.1679,157.2282 157.1529,155.7602 C156.4939,154.7412 156.4419,154.7412 156.1349,155.7032 C155.9319,156.2092 155.9319,157.0592 156.0879,157.5662 C156.4419,158.6402 155.5779,160.0532 154.5639,160.0532 C154.1599,160.0532 153.8549,159.5462 153.8549,158.9242 C153.8549,158.1902 153.5029,157.7942 152.8389,157.7942 C151.4729,157.7942 151.5209,159.7152 152.9419,160.4522 C153.9549,160.9592 153.8059,161.1872 150.2539,164.5212 C138.0789,175.8852 124.6869,183.4602 111.0939,186.7382 C103.9949,188.4372 89.2839,188.5502 82.8389,186.9632 C72.1849,184.3632 60.4209,178.5982 49.7159,170.6262 C42.3109,165.0832 35.1609,158.9242 35.1609,158.0212 C35.1609,157.6812 35.6159,157.1712 36.1739,156.8872 C36.8819,156.4942 37.0399,156.1532 36.6809,155.5312 C36.2259,154.7972 36.0209,154.9092 35.2059,156.0402 L34.2969,157.3972 L33.4849,156.0402 C33.0809,155.3062 32.7779,153.6662 32.8279,152.4222 C32.8759,150.3882 32.9779,150.1602 34.0929,150.3312 C35.2059,150.5002 35.2619,150.3882 35.0089,148.8632 C34.6539,147.0542 35.2059,146.2042 36.9329,145.8102 C37.4939,145.6952 37.9499,145.2412 37.9979,144.7912 C38.1029,142.7542 38.2539,142.5292 39.4199,142.5292 C40.1789,142.5292 40.7409,142.1322 40.8919,141.3982 C41.0429,140.7792 41.4999,140.2672 41.9569,140.2672 C42.4139,140.2672 42.7689,140.0422 42.7689,139.8172 C42.7689,139.5352 41.0939,139.7042 39.1139,140.1552 C37.0889,140.5512 34.7539,141.0602 33.8909,141.2292 C33.0809,141.3982 32.1159,141.7982 31.7599,142.0792 C31.1519,142.5852 27.4989,144.7912 27.1969,144.7912 C27.0919,144.7912 27.0439,144.3942 27.0439,143.9422 C27.0439,143.4912 26.6879,143.0972 26.2849,143.0972 C25.3709,143.0972 25.2699,145.1852 26.1329,145.4722 C26.4869,145.6382 26.5889,146.1482 26.3859,146.7132 C26.1329,147.5042 25.6239,147.6722 24.5069,147.5042 C23.1899,147.2792 22.9869,147.4472 22.9869,148.5222 C22.9869,149.2002 23.3409,149.8792 23.7459,150.1042 C24.3559,150.3312 24.5069,151.0662 24.3559,152.9872 C24.2049,155.1342 24.4059,155.7602 25.4719,156.8872 C26.1809,157.6812 27.6499,158.4152 28.6669,158.6402 L30.5439,159.0372 L30.2379,157.0032 C29.8849,154.3462 30.6469,154.3462 32.4719,157.0032 C33.7419,158.9242 33.7899,159.0932 32.9289,159.7712 C31.8119,160.6772 32.6239,161.3522 34.3479,160.8462 C35.4649,160.5652 35.7159,160.7902 36.3779,162.5432 C36.7819,163.6742 37.4429,164.5772 37.7459,164.5772 C38.1029,164.5772 41.0939,166.8952 44.3389,169.6642 C58.7959,181.9882 72.0369,188.7162 86.7459,191.0932 C91.6649,191.8812 103.5339,191.7722 108.4549,190.8692 C123.4209,188.1532 136.6599,180.8012 149.4939,168.0272 L156.8009,161.2402 C158.1679,160.4522 158.4209,160.4522 158.4209,161.4712 C158.4209,162.4832 159.4849,162.5992 160.3499,161.6402 C160.8029,161.1282 160.7029,160.8462 160.0969,160.2782 C159.3289,159.7152 159.3289,159.4902 159.8919,158.6962 C160.8559,157.3972 161.9189,157.5662 162.4289,159.1532 C162.6819,159.8842 163.3889,160.6212 163.9989,160.7902 C164.7119,160.9592 165.0169,161.4712 164.9069,162.1462 C164.8119,162.8272 165.1149,163.2212 165.9299,163.3332 C166.6409,163.4462 167.0439,163.2212 167.0439,162.7142 C167.0439,162.2582 166.5349,161.5272 165.9299,161.0152 L164.7579,160.1682 L166.4839,158.1902 C168.1109,156.2662 168.2099,155.9842 167.9079,153.0472 C167.6559,150.3312 167.7549,149.8792 168.6139,149.5972 C170.1369,149.0312 169.8829,147.4472 168.3119,147.7292" id="Fill-10" fill="#FEFEFE"></path>
                <path d="M32.727,170.3454 C31.964,170.2324 31.611,170.4574 31.611,171.0204 C31.611,171.6454 32.064,171.9264 32.928,171.9264 C34.5,171.9264 34.348,170.6264 32.727,170.3454" id="Fill-12" fill="#FEFEFE"></path>
                <path d="M38.9625,168.5331 C38.0545,168.5331 37.6955,168.8201 37.6955,169.6641 C37.6955,170.9641 38.1025,171.0771 39.3695,170.0081 C40.5885,168.9871 40.4345,168.5331 38.9625,168.5331" id="Fill-14" fill="#FEFEFE"></path>
                <path d="M28.6171,167.9708 C27.6031,167.9708 27.1971,169.0458 27.9051,169.8948 C28.4661,170.4578 29.3271,169.9508 29.4781,168.9298 C29.5821,168.2528 29.3271,167.9708 28.6171,167.9708" id="Fill-16" fill="#FEFEFE"></path>
                <path d="M164.1489,168.8204 C164.5069,169.2144 164.9069,169.4384 165.1659,169.2704 C165.7739,168.8734 165.5689,167.4074 164.8599,167.4074 C163.7949,167.4074 163.4959,168.0274 164.1489,168.8204" id="Fill-18" fill="#FEFEFE"></path>
                <path d="M35.2062,166.2712 C34.0452,166.2712 33.4332,167.1212 33.8902,168.0272 C34.3982,168.8732 35.8672,168.3642 36.0722,167.2362 C36.1732,166.6112 35.9202,166.2712 35.2062,166.2712" id="Fill-20" fill="#FEFEFE"></path>
                <path d="M24.7601,165.368 C23.6441,164.859 22.8361,166.271 23.5941,167.236 C23.8961,167.689 24.4061,167.914 24.7081,167.799 C25.6241,167.459 25.6741,165.708 24.7601,165.368" id="Fill-22" fill="#FEFEFE"></path>
                <path d="M157.6578,166.5555 C157.1528,166.5555 156.6428,166.8955 156.5418,167.2895 C156.3908,167.6895 156.8008,167.9705 157.6578,167.9705 C158.5218,167.9705 158.9248,167.6895 158.8248,167.2895 C158.6718,166.8955 158.1678,166.5555 157.6578,166.5555" id="Fill-24" fill="#FEFEFE"></path>
                <path d="M167.0436,166.5555 C167.0436,167.0085 167.4986,167.4075 168.0566,167.4075 C168.6136,167.4075 169.0726,167.0085 169.0726,166.5555 C169.0726,166.1025 168.6136,165.7085 168.0566,165.7085 C167.4986,165.7085 167.0436,166.1025 167.0436,166.5555" id="Fill-26" fill="#FEFEFE"></path>
                <path d="M163.0359,164.6335 C162.4769,163.6745 160.9559,164.2365 160.9559,165.4245 C160.9559,165.9335 161.4139,166.2715 162.2219,166.2715 C163.5899,166.2715 163.7489,165.9335 163.0359,164.6335" id="Fill-28" fill="#FEFEFE"></path>
                <path d="M31.8116,163.8995 C31.3046,163.3335 29.5816,164.1275 29.5816,164.9155 C29.5816,165.3675 30.0866,165.7085 30.8466,165.7085 C32.0156,165.7085 32.5706,164.6905 31.8116,163.8995" id="Fill-30" fill="#FEFEFE"></path>
                <path d="M49.3633,164.0706 C49.3633,163.1086 48.4463,162.3146 47.2833,162.3146 C46.7733,162.3146 46.6753,164.1806 47.1823,164.7456 C47.8893,165.5956 49.3633,165.1396 49.3633,164.0706" id="Fill-32" fill="#FEFEFE"></path>
                <path d="M171.101,163.6147 C171.101,164.1277 171.403,164.5767 171.76,164.7457 C172.672,165.0837 173.689,164.5207 173.486,163.7867 C173.18,162.8267 171.101,162.6527 171.101,163.6147" id="Fill-34" fill="#FEFEFE"></path>
                <path d="M20.397,162.3148 C19.282,162.3148 19.181,162.6528 20.095,163.7278 C20.756,164.6338 21.16,164.7458 21.617,164.2368 C22.175,163.6148 21.362,162.3148 20.397,162.3148" id="Fill-36" fill="#FEFEFE"></path>
                <path d="M28.4659,162.2028 C28.1099,161.0148 26.6369,160.2778 25.9759,161.0148 C25.6739,161.3528 25.5699,161.9208 25.7229,162.2588 C26.2319,163.1088 28.7149,163.0498 28.4659,162.2028" id="Fill-38" fill="#FEFEFE"></path>
                <path d="M148.7818,160.9025 C148.3778,160.9025 147.9708,161.3525 147.8698,161.9205 C147.7668,162.5995 148.0198,162.8835 148.7818,162.8835 C149.5448,162.8835 149.7988,162.5995 149.6958,161.9205 C149.5938,161.3525 149.1868,160.9025 148.7818,160.9025" id="Fill-40" fill="#FEFEFE"></path>
                <path d="M43.886,162.2028 C44.492,162.0898 45.052,161.6398 45.052,161.1868 C45.052,159.9398 43.072,160.1118 42.871,161.3528 C42.717,162.2028 42.921,162.3718 43.886,162.2028" id="Fill-42" fill="#FEFEFE"></path>
                <path d="M176.4764,159.4898 C175.5174,159.4898 175.0084,160.4528 175.3634,161.4708 C175.8194,162.8828 177.1874,162.4278 177.1874,160.9028 C177.1874,160.0528 176.8844,159.4898 176.4764,159.4898" id="Fill-44" fill="#FEFEFE"></path>
                <path d="M23.9969,158.8681 C23.9969,158.1901 23.6439,157.7941 23.0349,157.7941 C21.8709,157.7941 21.2609,158.6401 21.6679,159.7711 C22.0239,160.9021 23.9969,160.1681 23.9969,158.8681" id="Fill-46" fill="#FEFEFE"></path>
                <path d="M51.6968,159.7713 C51.8978,159.3213 51.6968,158.5283 51.3408,158.0213 C50.7318,157.2283 50.5808,157.2283 49.7678,158.3593 C49.2628,159.0373 48.8538,159.8273 48.8538,160.1123 C48.8538,160.9593 51.3878,160.6773 51.6968,159.7713" id="Fill-48" fill="#FEFEFE"></path>
                <path d="M168.5649,159.5467 C168.5649,160.3397 168.9179,160.6217 169.8319,160.6217 C171.2559,160.6217 171.3039,160.4527 170.5939,158.9247 C169.9379,157.6247 168.5649,158.0217 168.5649,159.5467" id="Fill-50" fill="#FEFEFE"></path>
                <path d="M41.1447,158.471 C41.3517,157.059 40.1787,156.779 39.2707,157.965 C38.8617,158.528 38.9117,158.924 39.3187,159.378 C40.1787,160.34 40.9417,159.94 41.1447,158.471" id="Fill-52" fill="#FEFEFE"></path>
                <path d="M145.2321,157.7938 C145.5381,157.7938 145.7421,158.1898 145.7421,158.6408 C145.7421,160.0528 146.6021,159.6028 146.8551,158.0778 C147.1601,156.4378 146.9571,156.0968 145.6381,156.0968 C145.1331,156.0968 144.7221,156.4938 144.7221,156.9468 C144.7221,157.3968 144.9801,157.7938 145.2321,157.7938" id="Fill-54" fill="#FEFEFE"></path>
                <path d="M180.2288,157.2283 C179.5698,157.2283 179.2178,157.6243 179.2178,158.3593 C179.2178,158.9783 179.3718,159.4903 179.6248,159.4903 C179.8258,159.4903 180.2818,158.9783 180.6368,158.3593 C181.1948,157.3403 181.1418,157.2283 180.2288,157.2283" id="Fill-56" fill="#FEFEFE"></path>
                <path d="M19.1302,155.7033 C18.0142,155.2503 17.4542,156.1533 17.9632,157.6243 C18.2162,158.4713 18.6752,158.8123 19.1802,158.5843 C20.1982,158.1343 20.1452,156.1533 19.1302,155.7033" id="Fill-58" fill="#FEFEFE"></path>
                <path d="M46.7731,158.2464 C47.7381,158.0214 48.0411,156.7214 47.3841,155.5904 C46.6751,154.4034 45.3041,155.7594 45.6571,157.2844 C45.8091,157.9654 46.2681,158.3594 46.7731,158.2464" id="Fill-60" fill="#FEFEFE"></path>
                <path d="M173.3839,155.7033 C172.9759,155.9283 172.6229,156.6033 172.6229,157.2283 C172.6229,158.0783 172.9759,158.3593 173.9409,158.3593 C175.0569,158.3593 175.1589,158.1903 174.8559,157.1153 C174.3969,155.4193 174.3489,155.3063 173.3839,155.7033" id="Fill-62" fill="#FEFEFE"></path>
                <path d="M51.8981,155.2504 C51.8981,156.3804 52.1011,156.7214 52.8101,156.5474 C53.2671,156.4374 53.6761,155.8714 53.6761,155.2504 C53.6761,154.6284 53.2671,154.0624 52.8101,153.9494 C52.1011,153.7784 51.8981,154.1184 51.8981,155.2504" id="Fill-64" fill="#FEFEFE"></path>
                <path d="M132.095,156.6623 C133.819,156.6623 134.276,156.3803 136.098,153.7783 C138.079,150.9533 138.639,149.1443 137.673,148.4653 C137.368,148.2973 136.913,148.6353 136.609,149.2563 C136.098,150.3313 136.004,150.3313 133.819,149.4253 C131.585,148.5223 131.486,148.5223 130.525,149.6533 C129.204,151.0653 128.646,154.6283 129.505,155.8153 C129.861,156.3253 130.978,156.6623 132.095,156.6623" id="Fill-66" fill="#FEFEFE"></path>
                <path d="M43.3256,155.3598 C43.2746,155.1348 43.2746,154.5718 43.2746,154.1188 C43.2746,153.6668 42.8196,153.2718 42.2586,153.2718 C41.1446,153.2718 40.9416,154.4028 41.8566,155.4188 C42.5116,156.1528 43.3786,156.0968 43.3256,155.3598" id="Fill-68" fill="#FEFEFE"></path>
                <path d="M58.6953,155.6468 C60.1153,156.7218 61.9413,156.0398 63.7683,153.8348 C64.7833,152.5928 65.5943,151.1788 65.5943,150.7258 C65.5943,150.2728 65.8463,149.8788 66.1023,149.8788 C66.4043,149.8788 66.6063,149.4848 66.6063,149.0318 C66.6063,148.0128 65.8993,147.9598 64.5283,148.9168 C63.6683,149.4848 63.4123,149.4258 62.8543,148.6348 C62.5023,148.0688 61.6883,147.6168 61.0773,147.6168 C59.7603,147.6168 56.9703,150.4998 56.9703,151.8588 C56.9703,152.9878 57.9353,155.0808 58.6953,155.6468" id="Fill-70" fill="#FEFEFE"></path>
                <path d="M148.8877,155.1345 C148.7317,155.8155 149.0377,156.0965 149.9977,156.0965 C151.0127,156.0965 151.3147,155.8155 151.3147,154.9095 C151.3147,154.0625 151.0647,153.7785 150.2017,153.9495 C149.5447,154.0625 148.9837,154.5715 148.8877,155.1345" id="Fill-72" fill="#FEFEFE"></path>
                <path d="M177.3415,153.3845 C176.0205,153.1585 175.9195,153.3845 176.7835,154.9685 C177.5425,156.3245 178.4555,156.1535 178.4555,154.6275 C178.4555,153.9495 178.0475,153.4975 177.3415,153.3845" id="Fill-74" fill="#FEFEFE"></path>
                <path d="M20.2962,152.7063 C20.0952,153.5533 20.2962,153.8343 20.9562,153.8343 C22.0242,153.8343 22.5812,152.6503 21.9722,151.5723 C21.4632,150.6663 20.6502,151.2343 20.2962,152.7063" id="Fill-76" fill="#FEFEFE"></path>
                <path d="M50.0698,151.8592 C49.6148,150.5592 48.1468,151.0662 47.9418,152.5932 C47.7878,153.4972 48.0408,153.8342 48.8058,153.8342 C50.0218,153.8342 50.4788,153.1032 50.0698,151.8592" id="Fill-78" fill="#FEFEFE"></path>
                <path d="M153.0429,152.9875 C153.3449,153.9495 153.8059,154.0065 154.8169,153.3285 C155.6799,152.7065 155.1749,151.0095 154.1599,151.0095 C153.1969,151.0095 152.6889,151.9715 153.0429,152.9875" id="Fill-80" fill="#FEFEFE"></path>
                <path d="M172.1133,152.7063 C172.1133,152.0843 171.8123,151.5723 171.4033,151.5723 C170.4933,151.5723 169.9373,152.4783 170.3393,153.2723 C170.8973,154.2883 172.1133,153.8933 172.1133,152.7063" id="Fill-82" fill="#FEFEFE"></path>
                <path d="M38.4549,150.6665 C37.3919,150.1595 37.0399,150.6665 37.4429,152.1405 C37.6459,152.8185 38.0549,153.2155 38.3539,153.1035 C39.3189,152.7625 39.3689,151.0655 38.4549,150.6665" id="Fill-84" fill="#FEFEFE"></path>
                <path d="M180.3308,151.4625 C180.2288,152.3095 180.4338,152.7065 180.9418,152.7065 C181.5008,152.7065 181.7518,152.1965 181.7518,151.2345 C181.7518,149.4845 180.5888,149.6535 180.3308,151.4625" id="Fill-86" fill="#FEFEFE"></path>
                <path d="M17.9629,149.0314 C17.3059,148.6354 16.2389,150.8414 16.6459,151.6314 C16.8989,152.0284 17.2059,151.9724 17.7109,151.5194 C18.5249,150.7844 18.6229,149.5404 17.9629,149.0314" id="Fill-88" fill="#FEFEFE"></path>
                <path d="M148.4783,151.7998 C149.1403,151.5188 149.1873,151.2908 148.7313,150.6668 C148.4283,150.2188 147.8703,149.8788 147.5153,149.8788 C146.7013,149.8788 145.6383,151.2908 146.0943,151.7468 C146.5023,152.2538 147.4633,152.2538 148.4783,151.7998" id="Fill-90" fill="#FEFEFE"></path>
                <path d="M45.4058,149.2002 C45.1028,148.8632 44.6448,148.8032 44.3388,148.9722 C43.4768,149.5972 43.6808,150.8972 44.6958,151.1222 C45.6578,151.3482 46.1678,150.0472 45.4058,149.2002" id="Fill-92" fill="#FEFEFE"></path>
                <path d="M158.8251,149.7103 C158.9241,149.0313 158.6711,148.7473 157.9601,148.7473 C156.9491,148.7473 156.5421,149.8223 157.2511,150.6663 C157.8091,151.2343 158.6711,150.7253 158.8251,149.7103" id="Fill-94" fill="#FEFEFE"></path>
                <path d="M176.173,149.8223 C175.517,148.4663 173.991,148.5793 173.736,150.0473 C173.588,150.7843 173.89,151.0093 175.159,151.0093 C176.58,151.0093 176.68,150.8973 176.173,149.8223" id="Fill-96" fill="#FEFEFE"></path>
                <path d="M152.538,148.9723 C152.942,147.7853 152.485,147.0543 151.269,147.0543 C150.302,147.0543 149.9,148.6903 150.66,149.4843 C151.269,150.1603 152.232,149.8793 152.538,148.9723" id="Fill-98" fill="#FEFEFE"></path>
                <path d="M50.3784,148.41 C50.3784,149.031 50.8334,149.316 51.6964,149.316 C53.2674,149.316 53.1154,148.013 51.4944,147.729 C50.7324,147.617 50.3784,147.842 50.3784,148.41" id="Fill-100" fill="#FEFEFE"></path>
                <path d="M41.4494,146.8824 C41.0424,145.6944 39.7254,146.3174 39.7254,147.6724 C39.7254,148.2404 40.0304,148.7474 40.4344,148.7474 C41.3994,148.7474 41.8564,147.9594 41.4494,146.8824" id="Fill-102" fill="#FEFEFE"></path>
                <path d="M179.7252,148.2408 C179.7252,147.9598 179.8762,147.3348 180.0272,146.8258 C180.2822,146.1478 180.0272,145.9228 179.0142,145.9228 C178.0482,145.9228 177.6952,146.2038 177.6952,146.9378 C177.6952,147.5038 177.8492,148.1848 178.0482,148.3538 C178.5552,148.9168 179.7252,148.8038 179.7252,148.2408" id="Fill-104" fill="#FEFEFE"></path>
                <path d="M19.7384,147.0542 C21.4134,147.0542 21.2604,145.1852 19.5374,144.9042 C18.6754,144.7352 18.4184,145.0162 18.4184,145.8662 C18.4184,146.7692 18.7264,147.0542 19.7384,147.0542" id="Fill-106" fill="#FEFEFE"></path>
                <path d="M46.32,146.2604 C46.32,146.7694 46.675,147.0544 47.183,146.9384 C48.447,146.6564 48.602,145.3544 47.384,145.3544 C46.773,145.3544 46.32,145.6944 46.32,146.2604" id="Fill-108" fill="#FEFEFE"></path>
                <path d="M156.1351,145.8662 C156.1351,145.4722 155.7351,145.0162 155.2751,144.9042 C154.3611,144.7352 154.0071,145.9222 154.7201,146.7132 C155.2251,147.2792 156.1351,146.7692 156.1351,145.8662" id="Fill-110" fill="#FEFEFE"></path>
                <path d="M171.9648,146.6568 C172.5228,147.3348 173.1308,147.1108 173.1308,146.2038 C173.1308,145.7538 172.7768,145.3538 172.3688,145.3538 C171.5578,145.3538 171.3538,146.0358 171.9648,146.6568" id="Fill-112" fill="#FEFEFE"></path>
                <path d="M150.153,144.3945 C150.407,143.5475 148.326,142.8105 147.666,143.5475 C147.363,143.8855 147.312,144.3945 147.515,144.7915 C147.971,145.5815 149.9,145.2985 150.153,144.3945" id="Fill-114" fill="#FEFEFE"></path>
                <path d="M41.9569,144.1724 C42.1579,144.5074 42.8709,144.7914 43.5799,144.7914 C44.4409,144.7914 44.7979,144.5074 44.7979,143.6604 C44.7979,143.0354 44.4409,142.3604 43.9869,142.1324 C43.0219,141.7414 41.4999,143.2664 41.9569,144.1724" id="Fill-116" fill="#FEFEFE"></path>
                <path d="M174.9554,143.8854 C175.4104,145.2414 177.4414,144.8474 177.4414,143.3764 C177.4414,142.7544 177.0864,142.1884 176.6804,142.1324 C175.4624,141.9044 174.6004,142.8104 174.9554,143.8854" id="Fill-118" fill="#FEFEFE"></path>
                <path d="M48.9064,143.1537 C49.8684,143.8287 50.5814,143.7727 51.2374,143.0357 C52.1014,142.0797 51.4454,140.8327 50.0694,140.8327 C48.6524,140.8327 47.8414,142.4167 48.9064,143.1537" id="Fill-120" fill="#FEFEFE"></path>
                <path d="M22.4268,143.0975 C23.2908,143.0975 23.5938,141.9665 22.9338,141.0605 C22.1748,140.0425 21.1598,140.8915 21.6168,142.1885 C21.8208,142.6975 22.1748,143.0975 22.4268,143.0975" id="Fill-122" fill="#FEFEFE"></path>
                <path d="M171.5077,141.8511 C171.6587,141.1171 171.3537,140.8321 170.4427,140.8321 C168.9727,140.8321 168.5647,141.2291 168.9177,142.3601 C169.3267,143.4351 171.3037,143.0351 171.5077,141.8511" id="Fill-124" fill="#FEFEFE"></path>
                <path d="M163.5898,141.2855 C164.2018,141.1735 164.7588,140.7175 164.7588,140.2665 C164.7588,139.0235 162.7828,139.1925 162.5788,140.4355 C162.4288,141.2855 162.6268,141.4565 163.5898,141.2855" id="Fill-126" fill="#FEFEFE"></path>
                <path d="M29.7843,140.3264 C29.9353,140.0424 29.7323,139.4734 29.2743,139.0804 C28.6173,138.5144 28.4153,138.5144 28.0093,139.1924 C27.7543,139.6454 27.5513,140.1544 27.5513,140.4354 C27.5513,141.0014 29.4783,140.9454 29.7843,140.3264" id="Fill-128" fill="#FEFEFE"></path>
                <path d="M45.7609,140.2667 C46.8769,140.2667 47.4839,138.9667 46.7259,138.1207 C45.9659,137.2707 44.7979,137.9487 44.7979,139.1917 C44.7979,139.8737 45.1529,140.2667 45.7609,140.2667" id="Fill-130" fill="#FEFEFE"></path>
                <path d="M173.2819,139.8732 C174.1939,140.3262 174.9049,139.9862 174.9049,139.0802 C174.9049,138.6292 174.3969,138.2352 173.7889,138.1202 C172.5229,137.8922 172.1129,139.3612 173.2819,139.8732" id="Fill-132" fill="#FEFEFE"></path>
                <path d="M34.2972,139.2512 C35.3122,139.9862 36.0212,139.7572 36.3272,138.6292 C36.6812,137.1042 35.1082,136.5362 34.2972,137.7802 C33.7902,138.5702 33.7902,138.8552 34.2972,139.2512" id="Fill-134" fill="#FEFEFE"></path>
                <path d="M25.3707,138.2356 C25.4217,137.9486 25.2697,137.3296 25.0117,136.8736 C24.4057,135.7456 23.2377,136.9896 23.6977,138.2916 C23.9967,139.2516 25.0647,139.1926 25.3707,138.2356" id="Fill-136" fill="#FEFEFE"></path>
                <path d="M167.3977,139.0232 C168.0087,138.9112 168.3117,138.3452 168.3117,137.4422 C168.3117,135.4052 166.8397,135.5742 166.6407,137.6112 C166.4837,138.9112 166.6407,139.1922 167.3977,139.0232" id="Fill-138" fill="#FEFEFE"></path>
                <path d="M43.2751,136.9327 C43.2751,135.6867 41.8061,134.8987 41.0941,135.6867 C40.8411,135.9707 40.7401,136.6487 40.8921,137.1037 C41.3511,138.4017 43.2751,138.2917 43.2751,136.9327" id="Fill-140" fill="#FEFEFE"></path>
                <path d="M162.222,136.8733 C162.579,136.2523 161.364,134.6143 160.551,134.6143 C159.939,134.6143 159.328,136.2523 159.738,136.9323 C160.097,137.6113 161.821,137.5543 162.222,136.8733" id="Fill-142" fill="#FEFEFE"></path>
                <path d="M31.1012,136.8733 C32.3682,136.8733 32.6742,136.6483 32.5202,135.9163 C32.4202,135.2363 31.9132,134.8983 31.1012,134.8983 C30.2892,134.8983 29.7842,135.2363 29.6802,135.9163 C29.5282,136.6483 29.8342,136.8733 31.1012,136.8733" id="Fill-144" fill="#FEFEFE"></path>
                <path d="M154.2102,135.9168 C154.7202,136.0858 155.1752,136.1988 155.2752,136.2518 C155.3242,136.2518 155.3812,135.8048 155.3812,135.1228 C155.3812,134.3298 155.1232,134.0488 154.5152,134.1618 C153.3452,134.3888 153.0932,135.5738 154.2102,135.9168" id="Fill-146" fill="#FEFEFE"></path>
                <path d="M172.6233,135.4613 C172.6233,135.0113 172.1663,134.6143 171.6083,134.6143 C170.5933,134.6143 170.2913,135.2363 170.9503,135.9173 C171.5583,136.6483 172.6233,136.3103 172.6233,135.4613" id="Fill-148" fill="#FEFEFE"></path>
                <path d="M38.8617,134.3299 C38.9117,134.0489 38.3067,133.6519 37.4947,133.5989 C36.1227,133.4269 36.0727,133.4859 36.6807,134.3299 C37.3927,135.2919 38.7107,135.2919 38.8617,134.3299" id="Fill-150" fill="#FEFEFE"></path>
                <path d="M166.0289,133.8234 C166.0289,132.8054 164.5069,132.1264 163.8479,132.8614 C163.5899,133.1454 163.5429,133.6524 163.6939,133.9924 C164.2019,134.8984 166.0289,134.7294 166.0289,133.8234" id="Fill-152" fill="#FEFEFE"></path>
                <path d="M158.3202,133.4858 C158.9242,133.4858 159.4362,133.2578 159.4362,132.9178 C159.4362,132.1828 158.8752,132.1828 157.9132,132.9178 C157.3042,133.3708 157.3542,133.4858 158.3202,133.4858" id="Fill-154" fill="#FEFEFE"></path>
                <path d="M37.6958,98.3768 C37.6958,98.8828 38.1028,99.0548 38.8618,98.8298 C41.3988,98.2078 67.2178,84.5808 66.2528,84.4148 C63.8188,84.0158 37.6958,96.7928 37.6958,98.3768" id="Fill-156" fill="#FEFEFE"></path>
                <path d="M117.0287,81.1344 C119.4107,79.9444 120.4277,79.7224 122.3047,80.0034 C124.1797,80.2854 124.5367,80.2284 124.0307,79.6634 C123.1147,78.6444 117.6897,78.8164 114.1377,80.0034 C110.3827,81.1914 106.9327,84.7534 106.4277,87.8624 C105.9687,90.5184 107.1867,94.3644 109.3157,97.0764 C110.3357,98.3214 111.2957,98.9984 112.1577,98.9984 C113.4747,98.9984 113.4747,98.9984 111.6507,97.3024 C109.2647,95.0964 108.8107,92.7774 109.9267,88.9344 C110.9417,85.5444 113.1227,83.1124 117.0287,81.1344" id="Fill-158" fill="#FEFEFE"></path>
                <path d="M140.8199,94.8707 C139.0429,95.9457 137.6239,96.9647 137.6239,97.0767 C137.6239,97.6967 139.2499,97.1337 141.9859,95.6047 C148.8879,91.7617 152.0279,86.6747 152.0799,79.2127 C152.0799,73.6157 150.9629,71.1287 147.2609,68.6387 C143.7109,66.2077 139.9079,65.3607 136.0979,66.0957 C132.7539,66.7737 129.5599,68.3547 128.7969,69.7137 C127.8839,71.4107 128.7439,71.3537 132.0949,69.6017 C136.2049,67.4547 138.9919,67.3957 142.5939,69.3737 C146.7519,71.6357 149.2889,76.5547 149.2889,82.1507 C149.2889,87.0127 146.3979,91.3647 140.8199,94.8707" id="Fill-160" fill="#FEFEFE"></path>
                <path d="M120.0722,46.2507 C120.2242,46.4757 121.7472,45.5187 123.4202,44.2167 C128.4392,40.2607 131.7412,38.8447 135.8472,38.8447 C138.9412,38.8447 139.8572,39.0727 142.6462,40.7697 C144.8792,42.0697 146.4502,43.5947 147.8182,45.5757 C151.9762,51.6807 152.3822,57.4457 149.0372,62.5327 C148.4282,63.4957 147.7672,64.5677 147.5652,64.9647 C147.2112,65.5857 147.3622,65.6427 148.0742,65.1917 C150.7112,63.6077 152.2812,59.7617 152.2812,54.9027 C152.3342,51.3967 151.1682,48.0597 148.7822,44.7257 C147.9712,43.5387 147.2602,42.0697 147.2602,41.4477 C147.2602,39.9757 143.3072,36.0197 140.8702,35.0577 C137.6732,33.8147 132.6532,34.1517 129.3552,35.8487 C125.0912,37.9957 118.9072,45.0077 120.0722,46.2507" id="Fill-162" fill="#FEFEFE"></path>
                <path d="M100.3897,18.8337 C103.2817,14.3667 108.2007,11.8787 114.1827,11.8787 C119.3607,11.8787 122.7087,13.7467 126.0567,18.4377 C128.9497,22.5657 129.1027,24.4277 126.9697,29.6867 C125.4477,33.5337 125.6507,34.6637 127.3797,31.8917 C130.3207,27.0867 130.4697,21.8847 127.8837,15.7787 C126.9197,13.4627 125.3997,10.6917 124.4827,9.5607 C119.9727,3.7947 109.4197,4.6977 102.9777,11.3157 C100.2387,14.1407 97.5487,19.5117 98.3597,20.4147 C98.8197,20.9217 99.3247,20.4717 100.3897,18.8337" id="Fill-164" fill="#FEFEFE"></path>
            </g>
        </g>
    </g>
</svg>